<?xml version="1.0" encoding="UTF-8"?>
<svg id="Layer_2" xmlns="http://www.w3.org/2000/svg" viewBox="0 0 537.12 292.13">
  <defs>
    <style>
      .cls-1 {
        fill-rule: evenodd;
      }

      .cls-1, .cls-2, .cls-3, .cls-4, .cls-5, .cls-6, .cls-7, .cls-8 {
        fill: #fff;
      }

      .cls-9 {
        fill: #14bbba;
      }

      .cls-10, .cls-2, .cls-3, .cls-4, .cls-5, .cls-6 {
        isolation: isolate;
      }

      .cls-11 {
        letter-spacing: .2em;
      }

      .cls-2 {
        font-size: 73.18px;
      }

      .cls-2, .cls-3, .cls-4, .cls-5, .cls-6 {
        font-family: NeulisNeue-Bold, 'Neulis Neue';
        font-weight: 700;
      }

      .cls-3 {
        font-size: 73.18px;
      }

      .cls-4 {
        font-size: 73.18px;
      }

      .cls-5 {
        font-size: 73.18px;
      }

      .cls-6 {
        font-size: 73.18px;
      }

      .cls-8 {
        font-family: NeulisNeue-Medium, 'Neulis Neue';
        font-size: 30.97px;
        font-weight: 500;
      }

      .cls-12 {
        fill: #ef3825;
        stroke: #ef3825;
      }

      .cls-12, .cls-13 {
        stroke-miterlimit: 10;
        stroke-width: 2px;
      }

      .cls-13 {
        fill: #ed8a22;
        stroke: #ed8a22;
      }

      .cls-14 {
        letter-spacing: .06em;
      }

      .cls-15 {
        letter-spacing: .12em;
      }

      .cls-16 {
        letter-spacing: .12em;
      }

      .cls-17 {
        letter-spacing: .12em;
      }

      .cls-18 {
        letter-spacing: .12em;
      }

      .cls-19 {
        letter-spacing: .12em;
      }

      .cls-20 {
        letter-spacing: .12em;
      }
    </style>
  </defs>
  <g id="Layer_1-2" data-name="Layer_1">
    <g>
      <g>
        <g class="cls-10">
          <text class="cls-5" transform="translate(185.66 178.12)"><tspan x="0" y="0">a</tspan></text>
        </g>
        <g class="cls-10">
          <text class="cls-5" transform="translate(249.15 177.31) rotate(-20.57)"><tspan x="0" y="0">t</tspan></text>
        </g>
        <g class="cls-10">
          <text class="cls-5" transform="translate(293.33 157.28) rotate(-39.44)"><tspan x="0" y="0">o</tspan></text>
        </g>
        <g class="cls-10">
          <text class="cls-5" transform="translate(328.23 124.17) rotate(-29.03)"><tspan x="0" y="0">m</tspan></text>
        </g>
        <g class="cls-10">
          <text class="cls-4" transform="translate(393.12 92.77) rotate(-12.76)"><tspan x="0" y="0">i</tspan></text>
        </g>
        <g class="cls-10">
          <text class="cls-3" transform="translate(415.06 87.29) rotate(-3.25)"><tspan x="0" y="0">c</tspan></text>
        </g>
        <g>
          <g class="cls-10">
            <text class="cls-5" transform="translate(157.85 265.13)"><tspan x="0" y="0">b</tspan></text>
          </g>
          <g class="cls-10">
            <text class="cls-6" transform="translate(210.89 265.15) rotate(.04)"><tspan x="0" y="0">l</tspan></text>
          </g>
          <g class="cls-10">
            <text class="cls-5" transform="translate(250.88 265.57) rotate(-23.04)"><tspan x="0" y="0">o</tspan></text>
          </g>
          <g class="cls-10">
            <text class="cls-2" transform="translate(302.73 238.86) rotate(-39.21)"><tspan x="0" y="0">s</tspan></text>
          </g>
          <g class="cls-10">
            <text class="cls-5" transform="translate(335.98 210.9) rotate(-38.46)"><tspan x="0" y="0">s</tspan></text>
          </g>
          <g class="cls-10">
            <text class="cls-5" transform="translate(366.67 184.95) rotate(-21.86)"><tspan x="0" y="0">o</tspan></text>
          </g>
          <g class="cls-10">
            <text class="cls-5" transform="translate(408.42 167.15) rotate(2.19)"><tspan x="0" y="0">m</tspan></text>
          </g>
        </g>
      </g>
      <text class="cls-8" transform="translate(83.47 26.17)"><tspan class="cls-15" x="0" y="0" xml:space="preserve">  </tspan><tspan class="cls-11" x="22.05" y="0"> </tspan><tspan class="cls-14" x="35.55" y="0">W</tspan><tspan class="cls-20" x="70.69" y="0">e</tspan><tspan class="cls-17" x="93.33" y="0">l</tspan><tspan class="cls-16" x="105.56" y="0">co</tspan><tspan class="cls-18" x="150.68" y="0">m</tspan><tspan class="cls-16" x="183.5" y="0">e</tspan></text>
      <text class="cls-8" transform="translate(206.48 67.89)"><tspan class="cls-19" x="0" y="0">t</tspan><tspan class="cls-15" x="17.56" y="0">o</tspan></text>
      <g>
        <path class="cls-1" d="M78.32,146.02c2.85-6.19,10.2-8.91,16.39-6.05s8.91,10.2,6.05,16.39c-2.85,6.19-10.2,8.91-16.39,6.05-6.19-2.85-8.91-10.2-6.05-16.39Z"/>
        <path class="cls-12" d="M104.21,223.78c-1.86,2.91-4.7,6.04-8.37,6.43-.19.01-.39.03-.58.04-2.97.07-5.67-1.7-7.83-3.74-4.56-4.3-7.61-9.89-10.2-15.53-2.42-5.27-4.39-10.72-6.04-16.28-3.7-12.46-5.9-25.36-7.09-38.28-1.91-20.71-.93-40.42,2.77-55.46,3.42-13.97,8.84-22.31,14.85-22.9h.06c6.03-.55,12.9,6.66,18.84,19.8.64,1.41,1.26,2.9,1.87,4.42.55,1.4,1.11,2.87,1.63,4.36l5.71.94c-.55-1.55-2.16-5.67-2.73-7.14-.64-1.59-1.29-3.16-1.97-4.63-4.17-9.23-9.42-15.16-13.79-19.43-9.01-8.81-11.28-13.69-12.28-16.61-.43,2.9-1.33,6.53-6.57,15.12-2.81,4.6-6.58,12.57-8.34,17.67-.82,2.37-1.51,4.79-2.11,7.22-3.82,15.57-4.85,35.86-2.9,57.1,1.22,13.27,3.51,26.52,7.3,39.31,3.37,11.35,7.59,22.94,15.75,31.78.8.86,1.62,1.7,2.48,2.51,2.8,2.63,5.92,4.95,8.52,7.77,2.6,2.83,3.84,6.89,5.03,10.14.37-3.33,1.07-8.77,3.37-12.54s5.22-7.12,7.54-10.88c4.21-6.86,6.22-14.84,7.69-22.75-1.62-.3-3.23-.6-4.85-.9-1.57,7.81-3.48,15.75-7.77,22.47h-.01Z"/>
        <path class="cls-13" d="M162.83,175.73c-1.97-5.68-6.37-12.57-13.81-19.7-11.57-11.1-28.63-22.13-48.01-31.05-19.38-8.92-38.85-14.71-54.8-16.29-9.06-.9-18.48.83-23.04,1.94-9.59,2.33-20.56.94-20.56.94,0,0,9.05,9.75,11.75,16.95,2.41,6.39,7.61,14.04,16.53,22l3.3-3.7c-12.14-10.84-17.76-20.85-15.02-26.8,2.54-5.5,12.22-7.84,26.56-6.42,15.42,1.52,34.32,7.16,53.22,15.86,18.9,8.7,35.47,19.41,46.65,30.14,10.41,9.98,14.92,18.86,12.39,24.36-3.08,6.68-16.83,8.62-35.91,5.07l-4,3.82c8.74,2.66,20.2,3.24,26.66,2.6,3.21-.32,6.24-1.18,9.84-2.33,8.85-2.83,19.73-.78,19.73-.78,0,0-8.42-7.84-11.46-16.63h0Z"/>
        <path class="cls-9" d="M146.08,102.99c-4.74-.35-11.18-1.57-20.88.76l1.15,4.81c11.74-2.81,20.26-1.91,23.37,2.49,3.49,4.95.68,14.51-7.72,26.21-9.03,12.59-23.37,26.15-40.36,38.16-16.99,12.01-34.54,21.01-49.42,25.34-13.84,4.02-23.79,3.49-27.3-1.45-4.75-6.73,2.3-21.85,17.97-38.53l-1.77-5.45c-8.31,8.84-18.87,23.76-21.45,33.49-2.92,11.04-9.88,23.36-9.88,23.36,0,0,7.08-3.7,18.04-4.43,7.2-.48,19.41-.83,28.92-3.55,15.42-4.41,30.33-12.43,47.76-24.75,17.43-12.32,32.17-26.28,41.53-39.31,5.47-7.63,7.86-14.96,9.77-20.26,4.36-12.1,9.82-18.43,9.82-18.43,0,0-10.36,2.19-19.54,1.51h-.01Z"/>
        <path class="cls-1" d="M25.13,146.31c1.22-4.42,6.33-6.3,10.11-3.74,2.3,1.55,3.38,4.48,2.65,7.15-1.22,4.42-6.33,6.3-10.11,3.74-2.3-1.55-3.38-4.48-2.65-7.15Z"/>
        <path class="cls-1" d="M116.14,105.45c1.22-4.42,6.33-6.3,10.11-3.74,2.3,1.55,3.38,4.48,2.65,7.15-1.22,4.42-6.33,6.3-10.11,3.74-2.3-1.55-3.38-4.48-2.65-7.15Z"/>
        <path class="cls-1" d="M107.35,203.87c1.22-4.42,6.33-6.3,10.11-3.74,2.3,1.55,3.38,4.48,2.65,7.15-1.22,4.42-6.33,6.3-10.11,3.74-2.3-1.55-3.38-4.48-2.65-7.15Z"/>
        <path class="cls-1" d="M117.36,104.77c1.32-2.85,4.68-4.1,7.54-2.78,2.85,1.32,4.1,4.68,2.78,7.54-1.32,2.85-4.68,4.1-7.54,2.78-2.85-1.32-4.1-4.68-2.78-7.54Z"/>
      </g>
      <path class="cls-7" d="M493.38,292.13c0-24.16,19.58-43.74,43.74-43.74h0,0c-24.16,0-43.74-19.58-43.74-43.74h0c0,24.16-19.58,43.74-43.74,43.74h0,0c24.16,0,43.74,19.58,43.74,43.74h0Z"/>
    </g>
  </g>
</svg>