<?xml version="1.0" encoding="UTF-8"?>
<svg id="Layer_1" xmlns="http://www.w3.org/2000/svg" viewBox="0 0 340.63 162.48">
  <defs>
    <style>
      .cls-1 {
        fill: none;
      }

      .cls-2 {
        fill: #010101;
      }

      .cls-3 {
        fill: #14bbba;
      }

      .cls-4, .cls-5 {
        fill: #191819;
      }

      .cls-6 {
        fill: #ee8a22;
      }

      .cls-5 {
        fill-rule: evenodd;
      }

      .cls-7 {
        fill: #ee3424;
      }
    </style>
  </defs>
  <g>
    <path class="cls-1" d="M48.89,55.87c-.81,8.27-.79,17.54.09,27.13.84,9.15,2.38,17.71,4.54,25.5,6.84-3.3,13.98-7.54,21.01-12.5,8.16-5.77,15.46-12.03,21.33-18.25-6.67-4.73-14.57-9.25-23.14-13.2-8.13-3.74-16.25-6.69-23.83-8.69ZM74.47,83.06c-2.06,4.47-7.36,6.43-11.83,4.37-4.47-2.06-6.43-7.36-4.37-11.83,2.06-4.47,7.36-6.43,11.83-4.37,4.47,2.06,6.43,7.36,4.37,11.83Z"/>
    <path class="cls-4" d="M58.27,75.6c-2.06,4.47-.1,9.77,4.37,11.83,4.47,2.06,9.77.1,11.83-4.37,2.06-4.47.1-9.77-4.37-11.83-4.47-2.06-9.77-.1-11.83,4.37Z"/>
    <path class="cls-7" d="M60.61,25.53c4.92-.45,10.1,4.83,14.64,14.87.47,1.03.93,2.12,1.37,3.23.34.85.67,1.73.99,2.63l1.83.3c-.49-1.29-1.1-2.84-1.37-3.51-.45-1.13-.92-2.24-1.4-3.3-3.01-6.66-6.79-10.83-9.73-13.72-4.39-4.29-6.62-7.33-7.87-9.59-.62,1.88-1.79,4.4-4.18,8.31-2.03,3.33-4.69,8.96-5.93,12.56-.55,1.61-1.04,3.28-1.5,5.13-.54,2.21-1,4.56-1.39,7.02.51.11,1.02.23,1.54.36.38-2.45.84-4.79,1.38-7,2.62-10.66,6.74-16.8,11.59-17.29Z"/>
    <path class="cls-7" d="M46.93,55.38c-.52-.13-1.03-.25-1.54-.37-.88,8.63-.89,18.32.04,28.32.88,9.57,2.51,18.54,4.82,26.7.48-.21.96-.43,1.45-.65-2.25-8-3.83-16.79-4.7-26.19-.91-9.82-.91-19.33-.06-27.81Z"/>
    <path class="cls-7" d="M63.55,135.81c.76.71,1.56,1.41,2.35,2.08,1.3,1.12,2.65,2.28,3.85,3.58,1.09,1.18,1.86,2.6,2.47,4.03.38-1.88.98-3.95,1.99-5.6.86-1.41,1.84-2.75,2.79-4.04.91-1.23,1.85-2.51,2.65-3.82,2.87-4.68,4.28-10.19,5.24-15.1l-1.55-.29c-1.04,5.08-2.47,10.77-5.55,15.59-1.37,2.14-3.65,4.76-6.78,5.09-.17.02-.33.03-.5.03-.05,0-.1,0-.16,0-2.02,0-4.11-1-6.21-2.98-3.55-3.35-5.83-7.7-7.59-11.52-1.17-2.54-2.22-5.22-3.2-8.08-.5.22-.99.42-1.48.62,2.21,6.74,5.1,13.4,9.93,18.62.56.61,1.15,1.2,1.74,1.76Z"/>
    <path class="cls-7" d="M48.89,55.87c-.66-.17-1.31-.34-1.96-.5-.85,8.47-.85,17.98.06,27.81.87,9.4,2.45,18.19,4.7,26.19.61-.28,1.22-.57,1.83-.87-2.17-7.79-3.7-16.35-4.54-25.5-.88-9.59-.9-18.86-.09-27.13Z"/>
    <path class="cls-7" d="M50.24,110.02c-2.31-8.16-3.94-17.12-4.82-26.7-.92-10-.92-19.69-.04-28.32-.66-.15-1.32-.3-1.96-.43-.92,8.82-.93,18.73,0,28.94.9,9.8,2.58,18.97,4.96,27.31.61-.26,1.23-.52,1.85-.8Z"/>
    <path class="cls-7" d="M46.1,49.46c.38-2.46.84-4.8,1.39-7.02.45-1.84.94-3.52,1.5-5.13,1.24-3.6,3.9-9.23,5.93-12.56,2.38-3.91,3.55-6.44,4.18-8.31,1.24,2.26,3.48,5.29,7.87,9.59,2.95,2.89,6.72,7.05,9.73,13.72.48,1.06.95,2.17,1.4,3.3.27.67.87,2.22,1.37,3.51l-1.83-.3c-.32-.9-.66-1.78-.99-2.63-.44-1.11-.9-2.2-1.37-3.23-4.54-10.04-9.72-15.32-14.64-14.87-4.86.48-8.97,6.62-11.59,17.29-.54,2.2-1,4.54-1.38,7,.65.15,1.29.31,1.95.48.38-2.46.83-4.8,1.37-7,2.33-9.49,6.01-15.39,9.88-15.78,3.85-.34,8.55,4.77,12.59,13.7.46,1.01.9,2.06,1.33,3.15.4,1,.79,2.05,1.17,3.11l.2.56,6.37,1.05-.56-1.6c-.41-1.16-1.57-4.13-1.99-5.18-.46-1.16-.94-2.3-1.43-3.39-3.15-6.96-7.08-11.31-10.16-14.32-6.28-6.15-7.92-9.56-8.61-11.6l-1.32-3.91-.61,4.08c-.3,2.01-.9,4.47-4.6,10.54-2.09,3.43-4.83,9.23-6.11,12.95-.57,1.66-1.08,3.4-1.55,5.3-.55,2.23-1.01,4.6-1.4,7.07.65.13,1.3.28,1.96.42Z"/>
    <path class="cls-7" d="M53.37,114.81c.97,2.86,2.02,5.54,3.2,8.08,1.76,3.81,4.03,8.16,7.59,11.52,2.1,1.98,4.18,2.98,6.21,2.98.05,0,.1,0,.16,0,.17,0,.33-.02.5-.03,3.13-.33,5.41-2.95,6.78-5.09,3.08-4.82,4.51-10.51,5.55-15.59l1.55.29c-.96,4.92-2.37,10.43-5.24,15.1-.8,1.31-1.74,2.58-2.65,3.82-.95,1.29-1.93,2.63-2.79,4.04-1.01,1.66-1.61,3.73-1.99,5.6-.62-1.44-1.38-2.85-2.47-4.03-1.2-1.3-2.55-2.46-3.85-3.58-.78-.67-1.59-1.37-2.35-2.08-.59-.56-1.18-1.15-1.74-1.76-4.83-5.23-7.71-11.89-9.93-18.62-.62.26-1.24.51-1.86.75,2.28,6.92,5.27,13.77,10.32,19.23.59.64,1.21,1.27,1.84,1.86.79.74,1.61,1.45,2.41,2.14,1.26,1.08,2.56,2.2,3.69,3.42,1.52,1.65,2.37,4.02,3.11,6.12l1.76,4.85.48-4.21c.22-1.95.69-6.02,2.29-8.64.81-1.34,1.77-2.64,2.69-3.89.93-1.27,1.89-2.58,2.74-3.96,3.23-5.27,4.69-11.43,5.68-16.76l.18-.99-5.46-1.01-.19.97c-1.03,5.14-2.38,11.03-5.47,15.87-1.13,1.77-2.97,3.93-5.3,4.18-.11.01-.23.02-.34.02-1.55.01-3.19-.78-4.94-2.43-3.31-3.12-5.47-7.26-7.14-10.9-1.17-2.53-2.21-5.2-3.18-8.06-.61.28-1.22.55-1.83.82Z"/>
    <path class="cls-6" d="M107.5,84.68c7.95,7.63,11.2,14.27,9.16,18.72-2.43,5.27-12.32,6.87-26.5,4.31l-1.25,1.19c5.78,1.45,12.81,1.81,17.18,1.38,2.12-.21,4.13-.76,6.89-1.64,4.19-1.34,8.9-1.23,11.85-.96-2.03-2.26-5.06-6.11-6.51-10.31-1.06-3.07-3.61-7.96-9.72-13.82-1.77-1.7-3.74-3.4-5.85-5.08-.34.39-.69.79-1.04,1.18,2.1,1.67,4.05,3.35,5.8,5.04Z"/>
    <path class="cls-6" d="M34.98,49.64c-7-.69-14.24.88-16.3,1.38-4.68,1.14-9.74,1.09-12.69.92,2.11,2.49,5.64,6.98,7.03,10.67,1.04,2.77,3.2,6.8,7.66,11.58.32-.42.69-.78,1.11-1.06-6.41-6.72-9.01-12.68-7.15-16.71,2.05-4.45,9.22-6.3,20.18-5.21,11.24,1.11,25,5.21,38.73,11.54,8.77,4.04,16.85,8.68,23.67,13.54.36-.39.71-.79,1.06-1.18-6.93-4.95-15.15-9.68-24.07-13.79-13.89-6.4-27.83-10.55-39.24-11.68Z"/>
    <path class="cls-6" d="M20.68,74.18c-4.45-4.78-6.61-8.82-7.66-11.58-1.39-3.69-4.92-8.18-7.03-10.67,2.94.17,8,.22,12.69-.92,2.06-.5,9.3-2.07,16.3-1.38,11.41,1.13,25.34,5.28,39.24,11.68,8.92,4.11,17.13,8.83,24.07,13.79.45-.51.89-1.01,1.31-1.52-7.07-5.07-15.45-9.9-24.54-14.09-8.66-3.99-17.35-7.12-25.47-9.2-.65-.17-1.3-.33-1.95-.48-.51-.12-1.03-.24-1.54-.36-.66-.15-1.31-.29-1.96-.42-3.11-.64-6.12-1.11-8.96-1.39-7.11-.71-14.23.76-16.96,1.42-6.65,1.61-14.41.67-14.48.66l-2.72-.34,1.86,2.01c.06.07,6.42,6.96,8.28,11.9,1.58,4.19,4.55,8.57,8.66,12.85.02-.12.03-.23.07-.35.17-.62.45-1.16.8-1.63Z"/>
    <path class="cls-6" d="M128.21,108.31c-.06-.05-5.92-5.56-8-11.59-1.13-3.28-3.83-8.48-10.23-14.61-1.8-1.73-3.79-3.45-5.93-5.15-.42.51-.86,1.01-1.3,1.52,2.11,1.68,4.07,3.38,5.85,5.08,6.11,5.86,8.66,10.75,9.72,13.82,1.45,4.2,4.48,8.05,6.51,10.31-2.94-.27-7.66-.37-11.85.96-2.75.88-4.77,1.43-6.89,1.64-4.37.43-11.4.08-17.18-1.38l1.25-1.19c14.19,2.56,24.07.96,26.5-4.31,2.05-4.45-1.2-11.1-9.16-18.72-1.76-1.69-3.71-3.37-5.8-5.04-.44.49-.89.99-1.35,1.48,2.09,1.66,4.03,3.33,5.77,5,7.08,6.79,10.34,12.93,8.72,16.44-1.99,4.31-11.73,5.53-24.82,3.09l-.5-.09-4.5,4.3,1.64.5c4.8,1.46,10.79,2.1,15.58,2.1,1.49,0,2.87-.06,4.06-.18,2.3-.23,4.42-.81,7.3-1.72,6.07-1.93,13.68-.54,13.76-.53l3.39.64-2.52-2.35Z"/>
    <path class="cls-6" d="M45.39,55.01c.51.12,1.03.24,1.54.37.65.16,1.3.32,1.96.5,7.58,2,15.7,4.94,23.83,8.69,8.57,3.95,16.47,8.47,23.14,13.2.47-.49.92-.99,1.37-1.48-6.82-4.86-14.9-9.5-23.67-13.54-13.74-6.33-27.49-10.43-38.73-11.54-10.96-1.09-18.13.76-20.18,5.21-1.86,4.03.74,9.99,7.15,16.71.61-.42,1.3-.68,2.03-.79-6.07-6.21-8.87-11.81-7.36-15.08,1.62-3.51,8.41-5.02,18.17-4.06,2.79.28,5.73.74,8.8,1.38.65.14,1.31.28,1.96.43Z"/>
    <path class="cls-3" d="M110.62,49.78c2.83,4,.85,11.13-5.58,20.08-6.58,9.18-17.01,19.04-29.36,27.77-12.35,8.73-25.12,15.28-35.97,18.43-10.58,3.07-17.96,2.57-20.79-1.43-3.73-5.28,1.11-16.22,12.65-28.64l-.57-1.74c-5.8,6.48-12.41,16.12-14.09,22.49-1.46,5.52-4.24,11.37-5.89,14.6,2.32-.83,6.04-1.88,10.75-2.19.77-.05,1.61-.1,2.51-.15,5.23-.31,12.4-.73,18.14-2.37,10.57-3.02,21.11-8.48,34.17-17.71,12.49-8.83,23.05-18.83,29.73-28.14,3.55-4.95,5.23-9.64,6.58-13.42l.34-.96c1.99-5.5,4.26-9.36,5.74-11.54-2.79.44-7.48.99-11.88.66-.53-.04-1.09-.09-1.68-.15-2.97-.29-6.62-.62-11.6.36.23.47.37.98.41,1.51,8.21-1.72,14.01-.84,16.39,2.53Z"/>
    <path class="cls-3" d="M101.7,79.64c.35-.39.7-.79,1.04-1.18.44-.51.88-1.01,1.3-1.52,1.41-1.68,2.72-3.35,3.9-5,3.71-5.17,5.52-10.22,6.83-13.91l.34-.95c3.04-8.43,6.87-12.95,6.91-12.99l1.92-2.24-2.89.61c-.07.02-7.41,1.55-13.82,1.07-.52-.04-1.06-.09-1.64-.15-3.16-.31-7.48-.71-13.37.64.7.42,1.24,1.01,1.58,1.71,4.98-.98,8.63-.65,11.6-.36.59.06,1.15.11,1.68.15,4.4.33,9.09-.23,11.88-.66-1.47,2.18-3.75,6.04-5.74,11.54l-.34.96c-1.35,3.77-3.03,8.47-6.58,13.42-6.68,9.31-17.24,19.31-29.73,28.14-13.06,9.23-23.59,14.7-34.17,17.71-5.74,1.64-12.91,2.06-18.14,2.37-.9.05-1.75.1-2.51.15-4.71.32-8.43,1.36-10.75,2.19,1.66-3.23,4.44-9.08,5.89-14.6,1.68-6.37,8.29-16.01,14.09-22.49l.57,1.74c-11.54,12.41-16.38,23.36-12.65,28.64,2.83,4,10.21,4.5,20.79,1.43,10.85-3.15,23.62-9.7,35.97-18.43,12.35-8.73,22.78-18.6,29.36-27.77,6.42-8.95,8.41-16.08,5.58-20.08-2.38-3.37-8.18-4.25-16.39-2.53.05.67-.05,1.36-.35,2.01-.02.05-.05.08-.08.13,7.61-1.72,13.27-1.16,15.18,1.55,2.23,3.15.15,9.79-5.57,17.76-1.16,1.61-2.44,3.24-3.82,4.89-.43.5-.87,1.01-1.31,1.52-.35.39-.7.78-1.06,1.18-.45.49-.9.98-1.37,1.48-5.87,6.21-13.17,12.47-21.33,18.25-7.02,4.97-14.17,9.2-21.01,12.5-.61.3-1.23.59-1.83.87-.49.22-.97.44-1.45.65-.62.28-1.24.54-1.85.8-3.19,1.34-6.29,2.47-9.23,3.32-9.42,2.73-16.37,2.49-18.6-.67-3.1-4.38,2.08-15.05,12.88-26.55l.41-.43-1.99-6.09-1.15,1.23c-6.22,6.61-13.83,17.49-15.71,24.6-2.05,7.75-6.98,16.53-7.03,16.62l-1.66,2.94,3-1.56s5.01-2.58,12.62-3.09c.76-.05,1.6-.1,2.5-.15,5.33-.31,12.62-.74,18.58-2.44,2.34-.67,4.69-1.46,7.05-2.38.62-.24,1.24-.49,1.86-.75.49-.2.99-.41,1.48-.62.61-.26,1.22-.54,1.83-.82,6.95-3.2,14.26-7.57,22.55-13.44,8.65-6.12,16.39-12.79,22.6-19.43.46-.49.91-.99,1.35-1.48Z"/>
    <path class="cls-4" d="M21.8,73.12c-.42.29-.8.64-1.11,1.06-.35.47-.63,1.01-.8,1.63-.03.11-.04.23-.07.35-.36,1.83.41,3.76,1.97,4.82,2.74,1.85,6.42.49,7.3-2.7.53-1.93-.25-4.04-1.91-5.16-1.05-.71-2.24-.94-3.36-.79-.73.1-1.42.37-2.03.79Z"/>
    <path class="cls-4" d="M94.23,47.25c-.04-.53-.18-1.04-.41-1.51-.34-.7-.88-1.29-1.58-1.71-.12-.07-.23-.15-.36-.21-2.06-.95-4.49-.05-5.44,2.01-.95,2.06-.05,4.49,2.01,5.44,2.01.93,4.37.08,5.36-1.88.02-.04.05-.08.08-.13.3-.65.4-1.34.35-2.01Z"/>
  </g>
  <g>
    <path class="cls-2" d="M137.31,87.5c0-7.75,5.41-13.62,12.54-13.62,3.16,0,5.87,1.17,7.85,3.21v-2.6h7.45v16.73c0,1.33.76,2.09,2.09,2.09h.51v7.19h-2.09c-3.57,0-5.92-1.17-7.09-3.52-2.09,2.55-5.1,4.13-8.72,4.13-7.14,0-12.54-5.87-12.54-13.62ZM157.71,87.5c0-3.67-2.7-6.42-6.37-6.42s-6.32,2.75-6.32,6.42,2.7,6.43,6.32,6.43,6.37-2.75,6.37-6.43Z"/>
    <path class="cls-2" d="M182.07,90.39l-3.85-10.26-3.63,1.36-2.38-6.35,2-.75c1.34-.5,1.75-1.42,1.25-2.76l-1.65-4.39,6.59-2.47,2.4,6.4,7.97-2.99,2.38,6.35-7.97,2.99,3.6,9.6c.47,1.24,1.63,1.73,2.82,1.28,1.34-.5,1.79-1.76,1.2-3.34l6.21-2.33c2.02,5.39-.11,10.17-5.45,12.18-5.11,1.92-9.76.12-11.5-4.51Z"/>
    <path class="cls-2" d="M203.67,75.04c-4.92-5.99-4-14.34,2.18-19.42,6.18-5.09,14.56-4.38,19.48,1.61s4,14.34-2.18,19.42c-6.18,5.09-14.56,4.38-19.48-1.61ZM219.42,62.08c-2.33-2.84-6.17-3.25-9-.91s-3.17,6.18-.84,9.01c2.33,2.83,6.17,3.25,9,.91,2.84-2.33,3.17-6.18.84-9.01Z"/>
    <path class="cls-2" d="M225.07,38.69l6.51-3.61,1.19,2.14c.71-2.72,2.4-4.83,4.98-6.26,3.17-1.76,6.43-1.76,9.1-.21.49-3.42,2.36-6.15,5.62-7.96,4.95-2.75,10.11-1.23,12.93,3.85l3.74,6.74c.64,1.16,1.68,1.46,2.84.81l.45-.25,3.49,6.29-1.83,1.02c-4.59,2.55-8.22,1.59-10.67-2.83l-3.44-6.2c-1.36-2.45-3.84-3.24-6.2-1.93-2.54,1.41-3.34,4.07-1.96,6.57l7.1,12.8-6.51,3.61-7.15-12.89c-1.36-2.45-3.84-3.24-6.2-1.92-2.54,1.41-3.34,4.07-1.96,6.57l7.1,12.8-6.51,3.61-12.62-22.75Z"/>
    <path class="cls-2" d="M275.04,7.6c-.57-2.54.94-4.87,3.47-5.44,2.59-.58,4.96.87,5.53,3.4.58,2.59-.93,4.92-3.51,5.5-2.54.57-4.9-.88-5.49-3.46ZM277.61,15.02l7.26-1.64,5.74,25.37-7.26,1.64-5.74-25.37Z"/>
    <path class="cls-2" d="M296.36,24.13c-.44-7.74,5.23-13.94,13.23-14.39,6.98-.4,12.78,3.82,14.01,10.08l-7.89.45c-.84-2.15-3.11-3.5-5.71-3.35-3.67.21-6.21,3.11-6,6.78s3.06,6.26,6.73,6.05c2.6-.15,4.7-1.75,5.29-3.98l7.89-.45c-.51,6.36-5.8,11.21-12.77,11.61-7.99.46-14.34-5.06-14.78-12.8Z"/>
  </g>
  <g>
    <path class="cls-2" d="M119.46,124.43h7.45v13.31c1.99-2.04,4.69-3.21,7.85-3.21,7.19,0,12.54,5.86,12.54,13.62s-5.35,13.62-12.54,13.62c-3.16,0-5.86-1.17-7.85-3.21v2.6h-7.45v-36.72ZM139.65,148.14c0-3.67-2.7-6.42-6.38-6.42s-6.37,2.75-6.37,6.42,2.7,6.43,6.37,6.43,6.38-2.75,6.38-6.43Z"/>
    <path class="cls-2" d="M156.32,153.04l.02-28.61h7.45s-.02,26.98-.02,26.98c0,1.63.97,2.55,2.65,2.55h1.58s0,7.19,0,7.19h-2.65c-5.97,0-9.02-2.76-9.02-8.12Z"/>
    <path class="cls-2" d="M177.49,148.94c-3.03-7.13.21-14.89,7.58-18.02,7.37-3.13,15.2-.09,18.24,7.04,3.03,7.13-.21,14.89-7.58,18.02s-15.2.09-18.24-7.04ZM196.27,140.95c-1.44-3.38-5-4.86-8.38-3.42-3.38,1.44-4.79,5.03-3.35,8.41,1.44,3.38,5,4.86,8.38,3.42,3.38-1.44,4.79-5.03,3.35-8.41Z"/>
    <path class="cls-2" d="M213.48,135.87l5.77-4.71c.97,1.19,2.83,1.05,4.49-.31,1.46-1.19,1.98-2.74,1.24-3.64-2.42-2.96-11.76,7.69-17.7.42-3.48-4.27-1.72-9.46,2.7-13.07,4.82-3.93,10.41-4.02,13.38-.38l-5.73,4.68c-.87-1.07-2.52-.91-3.98.29-1.3,1.06-1.81,2.46-1.07,3.37,2.32,2.85,11.77-7.76,17.64-.57,3.29,4.03,2.15,9.5-2.75,13.5-5.14,4.19-10.94,4.18-14,.43Z"/>
    <path class="cls-2" d="M236.69,116.32l5.83-4.63c.95,1.2,2.82,1.08,4.49-.25,1.48-1.17,2.02-2.71,1.29-3.63-2.38-3-11.86,7.53-17.7.19-3.43-4.31-1.6-9.48,2.87-13.03,4.87-3.87,10.46-3.88,13.38-.21l-5.79,4.6c-.86-1.08-2.51-.94-3.98.23-1.32,1.05-1.84,2.44-1.11,3.36,2.28,2.88,11.87-7.61,17.64-.34,3.24,4.07,2.03,9.53-2.92,13.46-5.19,4.12-10.99,4.04-14,.25Z"/>
    <path class="cls-2" d="M258.4,92.64c-2.89-7.19.51-14.88,7.94-17.86,7.43-2.98,15.2.22,18.09,7.41,2.89,7.19-.51,14.88-7.94,17.86-7.43,2.98-15.2-.22-18.09-7.41ZM277.33,85.04c-1.37-3.41-4.9-4.96-8.31-3.59-3.41,1.37-4.89,4.93-3.52,8.34s4.9,4.96,8.31,3.59c3.41-1.37,4.89-4.93,3.52-8.34Z"/>
    <path class="cls-2" d="M294.96,67l7.44.29-.09,2.45c2.01-1.96,4.55-2.89,7.51-2.77,3.62.14,6.41,1.83,7.89,4.54,2.2-2.67,5.21-4.04,8.93-3.89,5.66.22,9.28,4.18,9.06,9.99l-.29,7.7c-.05,1.33.68,2.12,2.01,2.17l.51.02-.28,7.19-2.09-.08c-5.25-.2-7.85-2.9-7.66-7.95l.27-7.08c.11-2.8-1.6-4.76-4.31-4.86-2.91-.11-4.97,1.75-5.08,4.6l-.56,14.63-7.44-.29.56-14.73c.11-2.8-1.6-4.76-4.31-4.86-2.9-.11-4.97,1.75-5.08,4.6l-.56,14.63-7.44-.29,1-25.99Z"/>
  </g>
  <path class="cls-5" d="M79.65,116.2c.9-3.13,4.52-4.47,7.24-2.67,1.69,1.12,2.5,3.29,1.94,5.24-.9,3.13-4.53,4.47-7.24,2.67-1.69-1.12-2.5-3.29-1.94-5.24Z"/>
</svg>